<?xml version="1.0" encoding="UTF-8" standalone="no"?>
<!-- Created with Inkscape (http://www.inkscape.org/) -->

<svg
   xmlns:dc="http://purl.org/dc/elements/1.1/"
   xmlns:cc="http://creativecommons.org/ns#"
   xmlns:rdf="http://www.w3.org/1999/02/22-rdf-syntax-ns#"
   xmlns:svg="http://www.w3.org/2000/svg"
   xmlns="http://www.w3.org/2000/svg"
   xmlns:sodipodi="http://sodipodi.sourceforge.net/DTD/sodipodi-0.dtd"
   xmlns:inkscape="http://www.inkscape.org/namespaces/inkscape"
   width="40"
   height="40"
   viewBox="0 0 10.583333 10.583334"
   version="1.1"
   id="svg8"
   inkscape:version="0.92.3 (2405546, 2018-03-11)"
   sodipodi:docname="deep-completion.svg">
  <defs
     id="defs2">
    <filter
       inkscape:collect="always"
       style="color-interpolation-filters:sRGB"
       id="filter4621"
       x="-0.048"
       width="1.096"
       y="-0.048"
       height="1.096">
      <feGaussianBlur
         inkscape:collect="always"
         stdDeviation="0.16933332"
         id="feGaussianBlur4623" />
    </filter>
    <filter
       inkscape:collect="always"
       style="color-interpolation-filters:sRGB"
       id="filter1065"
       x="-0.02516838"
       width="1.0503368"
       y="-0.068944439"
       height="1.1378889">
      <feGaussianBlur
         inkscape:collect="always"
         stdDeviation="0.080703201"
         id="feGaussianBlur1067" />
    </filter>
  </defs>
  <sodipodi:namedview
     id="base"
     pagecolor="#cccccc"
     bordercolor="#666666"
     borderopacity="1.0"
     inkscape:pageopacity="0"
     inkscape:pageshadow="2"
     inkscape:zoom="11.2"
     inkscape:cx="-5.0241475"
     inkscape:cy="24.492396"
     inkscape:document-units="mm"
     inkscape:current-layer="layer1"
     showgrid="true"
     units="px"
     inkscape:pagecheckerboard="false"
     inkscape:window-width="1920"
     inkscape:window-height="1035"
     inkscape:window-x="0"
     inkscape:window-y="900"
     inkscape:window-maximized="1"
     inkscape:snap-nodes="false">
    <inkscape:grid
       type="xygrid"
       id="grid3724" />
  </sodipodi:namedview>
  <metadata
     id="metadata5">
    <rdf:RDF>
      <cc:Work
         rdf:about="">
        <dc:format>image/svg+xml</dc:format>
        <dc:type
           rdf:resource="http://purl.org/dc/dcmitype/StillImage" />
        <dc:title />
      </cc:Work>
    </rdf:RDF>
  </metadata>
  <g
     inkscape:label="root"
     inkscape:groupmode="layer"
     id="layer1"
     transform="translate(0,-286.41665)">
    <circle
       style="fill:#ffffff;fill-opacity:0.921466;stroke:none;stroke-width:0.0269875;stroke-miterlimit:4;stroke-dasharray:none;stroke-opacity:1;filter:url(#filter4621)"
       id="path4535"
       cx="5.2916665"
       cy="291.70831"
       r="4.2333331"
       inkscape:label="white-sphere" />
    <path
       style="fill:#000bff;fill-opacity:1;stroke:none;stroke-width:0.5291667;stroke-linecap:butt;stroke-linejoin:miter;stroke-miterlimit:4;stroke-dasharray:none;stroke-opacity:1"
       d="m 1.8520833,290.3854 c 0.5291667,-0.79375 0.5291667,-0.79375 1.2253768,-0.62671 0.3638486,0.0873 0.3621232,1.15588 1.4204565,0.89129 1.0583333,-0.26458 1.3229167,-1.05833 2.1166666,-1.05833 0.79375,0 0.79375,2.11666 1.8520834,1.05833 C 9.525,289.59165 9.525,291.17915 9.525,292.23748 c 0,1.05834 -0.7984748,2.11667 -1.8568081,2.91042 -1.2875161,0.96564 -3.8322334,0.54222 -4.674781,-0.0305 -1.0243971,-0.69639 -1.3918816,-1.28994 -1.5382026,-2.08612 -0.1611958,-0.87713 -0.1322917,-1.85209 0.396875,-2.64584 z"
       inkscape:connector-curvature="0"
       id="path4631"
       sodipodi:nodetypes="sscszzssss"
       inkscape:label="wave-depth" />
    <path
       style="fill:#00e3ed;fill-opacity:1;stroke:#0083e7;stroke-width:0.0269875;stroke-linecap:butt;stroke-linejoin:miter;stroke-miterlimit:4;stroke-dasharray:none;stroke-opacity:1"
       d="m 4.7624999,288.26873 v 5.82083 L 3.96875,293.5604 l 1.3229166,1.5875 1.3229166,-1.5875 -0.7937499,0.52916 v -5.82083 z"
       id="path3728"
       inkscape:connector-curvature="0"
       inkscape:label="arrow" />
    <path
       inkscape:label="wave-bottom"
       sodipodi:nodetypes="csscszc"
       id="path4633"
       inkscape:connector-curvature="0"
       d="m 2.0793923,294.40976 c -0.6494457,-1.3394 -0.6573834,-2.66928 -0.1539658,-3.6462 0.5034176,-0.97692 0.5152294,-0.84699 1.1775621,-0.6414 0.3461439,0.10744 0.4153729,1.36356 1.4222081,1.03791 1.0068351,-0.32564 1.2112969,-1.38524 1.9664232,-1.38524 0.7551263,0 0.7551263,2.60511 1.7619616,1.30256 1.0068352,-1.30256 1.0915441,0.99515 0.9734265,2.32134"
       style="fill:none;stroke:#0066f6;stroke-width:0.57259607;stroke-linecap:round;stroke-linejoin:round;stroke-miterlimit:4;stroke-dasharray:none;stroke-opacity:1" />
    <path
       style="fill:none;stroke:#6a99f6;stroke-width:0.5291667;stroke-linecap:round;stroke-linejoin:round;stroke-miterlimit:4;stroke-dasharray:none;stroke-opacity:1"
       d="m 1.3651151,293.20269 c -0.2556898,-1.10156 -0.042198,-2.02354 0.4869682,-2.81729 0.5291667,-0.79375 0.5291667,-0.79375 1.2253768,-0.62671 0.3638486,0.0873 0.3621232,1.15588 1.4204565,0.89129 1.0583333,-0.26458 1.3229167,-1.05833 2.1166666,-1.05833 0.79375,0 0.79375,2.11666 1.8520834,1.05833 C 9.525,289.59165 9.525,291.17915 9.525,292.23748"
       inkscape:connector-curvature="0"
       id="path4635"
       sodipodi:nodetypes="csscszc"
       inkscape:label="wave-top" />
    <g
       aria-label="DEEP"
       transform="scale(0.98102459,1.0193424)"
       style="font-style:normal;font-weight:normal;font-size:3.07107234px;line-height:1.25;font-family:sans-serif;letter-spacing:0px;word-spacing:0px;opacity:0.79900004;fill:#0000ff;fill-opacity:1;stroke:#0000f6;stroke-width:0.28800002;stroke-miterlimit:4;stroke-dasharray:none;stroke-opacity:1;filter:url(#filter1065)"
       id="text899"
       inkscape:label="deep-back">
      <path
         d="m 1.9955318,286.07156 v 1.74098 h 0.3658895 q 0.46336,0 0.6777953,-0.20994 0.2159347,-0.20994 0.2159347,-0.6628 0,-0.44986 -0.2159347,-0.6583 -0.2144353,-0.20994 -0.6777953,-0.20994 z m -0.3029085,-0.24892 h 0.622312 q 0.6508035,0 0.9552115,0.27142 0.3044081,0.26992 0.3044081,0.84574 0,0.57883 -0.3059076,0.85024 -0.3059076,0.27142 -0.953712,0.27142 h -0.622312 z"
         style="fill:#0000ff;fill-opacity:1;stroke:#0000f6;stroke-width:0.28800002;stroke-miterlimit:4;stroke-dasharray:none;stroke-opacity:1"
         id="path896"
         inkscape:connector-curvature="0" />
      <path
         d="m 3.9465879,286.20775 h 1.1261059 v 0.25492 H 4.2494964 v 0.6628 h 0.7767114 v 0.25492 H 4.2494964 v 0.81126 h 0.8501892 v 0.25492 H 3.9465879 Z"
         style="fill:#0000ff;fill-opacity:1;stroke:#0000f6;stroke-width:0.28800002;stroke-miterlimit:4;stroke-dasharray:none;stroke-opacity:1"
         id="path898"
         inkscape:connector-curvature="0"
         sodipodi:nodetypes="ccccccccccccc" />
      <path
         d="m 5.9511612,285.63724 h 1.4155724 v 0.25492 H 6.2540697 v 0.6628 h 1.066178 v 0.25492 h -1.066178 v 0.81126 h 1.1396558 v 0.25492 H 5.9511612 Z"
         style="fill:#0000ff;fill-opacity:1;stroke:#0000f6;stroke-width:0.28800002;stroke-miterlimit:4;stroke-dasharray:none;stroke-opacity:1"
         id="path900"
         inkscape:connector-curvature="0"
         sodipodi:nodetypes="ccccccccccccc" />
      <path
         d="m 8.2456439,286.07156 v 0.84125 h 0.3808849 q 0.2114362,0 0.3269013,-0.10947 0.1154651,-0.10946 0.1154651,-0.3119 0,-0.20094 -0.1154651,-0.31041 -0.1154651,-0.10947 -0.3269013,-0.10947 z m -0.3029085,-0.24892 h 0.6837934 q 0.3763863,0 0.5683284,0.17095 0.1934415,0.16945 0.1934415,0.49785 0,0.3314 -0.1934415,0.50085 -0.1919421,0.16944 -0.5683284,0.16944 H 8.2456439 v 0.89973 H 7.9427354 Z"
         style="fill:#0000ff;fill-opacity:1;stroke:#0000f6;stroke-width:0.28800002;stroke-miterlimit:4;stroke-dasharray:none;stroke-opacity:1"
         id="path902"
         inkscape:connector-curvature="0" />
    </g>
    <g
       aria-label="DEEP"
       transform="scale(0.98022569,1.0201732)"
       style="font-style:normal;font-weight:normal;font-size:3.06885123px;line-height:1.25;font-family:sans-serif;letter-spacing:0px;word-spacing:0px;fill:#000000;fill-opacity:1;stroke:#fffff6;stroke-width:0.2877048;stroke-opacity:1"
       id="text4645"
       inkscape:label="deep-front">
      <path
         d="m 1.9322009,285.88761 v 1.73971 l 0.1487241,-0.0116 c 0.2788742,-0.0217 0.5344517,0.0285 0.6773051,-0.11136 0.1438524,-0.13986 0.2941039,-0.4359 0.2941039,-0.73758 0,-0.2997 -0.028523,-0.59067 -0.1723751,-0.72953 -0.1428534,-0.13985 -0.4913588,-0.18519 -0.7990339,-0.16124 z m -0.158089,-0.24875 0.4049612,-0.0116 c 0.4333634,-0.0124 0.6372533,0.0441 0.8400453,0.22492 0.2027919,0.17981 0.2017626,0.53099 0.2017626,0.9146 0,0.3856 -0.1018955,0.66881 -0.3056863,0.84963 -0.203791,0.18081 -0.3047553,0.23573 -0.7361216,0.24806 l -0.4049612,0.0116 z"
         style="fill:#faffff;fill-opacity:1;stroke:#fffff6;stroke-width:0.2877048;stroke-opacity:1"
         id="path887"
         inkscape:connector-curvature="0"
         sodipodi:nodetypes="ccscscsccscscscc" />
      <path
         d="m 3.9228193,285.92921 h 1.0992841 v 0.25474 H 4.2255087 v 0.66232 h 0.7501424 v 0.25474 H 4.2255087 v 0.81067 h 0.823567 v 0.25474 H 3.9228193 Z"
         style="fill:#faffff;fill-opacity:1;stroke:#fffff6;stroke-width:0.2877048;stroke-opacity:1"
         id="path889"
         inkscape:connector-curvature="0"
         sodipodi:nodetypes="ccccccccccccc" />
      <path
         d="m 6.0350931,285.36869 h 1.1418875 v 0.25474 h -0.839198 v 0.66232 h 0.7927456 v 0.25474 H 6.3377826 v 0.81067 h 0.8661703 v 0.25474 H 6.0350931 Z"
         style="fill:#faffff;fill-opacity:1;stroke:#fffff6;stroke-width:0.2877048;stroke-opacity:1"
         id="path891"
         inkscape:connector-curvature="0"
         sodipodi:nodetypes="ccccccccccccc" />
      <path
         d="m 8.3223934,285.88761 v 0.84064 h 0.3806095 q 0.2112832,0 0.3266648,-0.10939 0.1153816,-0.10939 0.1153816,-0.31168 0,-0.2008 -0.1153816,-0.31018 -0.1153816,-0.10939 -0.3266648,-0.10939 z M 8.019704,285.63886 h 0.6832989 q 0.3761141,0 0.5679173,0.17083 0.1933016,0.16932 0.1933016,0.49749 0,0.33116 -0.1933016,0.50048 -0.1918032,0.16933 -0.5679173,0.16933 H 8.3223934 v 0.89908 H 8.019704 Z"
         style="fill:#faffff;fill-opacity:1;stroke:#fffff6;stroke-width:0.2877048;stroke-opacity:1"
         id="path893"
         inkscape:connector-curvature="0" />
    </g>
  </g>
</svg>
